<?xml version="1.0" encoding="UTF-8" standalone="no"?>
<!-- Created with Inkscape (http://www.inkscape.org/) -->

<svg
   xmlns:dc="http://purl.org/dc/elements/1.1/"
   xmlns:cc="http://creativecommons.org/ns#"
   xmlns:rdf="http://www.w3.org/1999/02/22-rdf-syntax-ns#"
   xmlns:svg="http://www.w3.org/2000/svg"
   xmlns="http://www.w3.org/2000/svg"
   xmlns:sodipodi="http://sodipodi.sourceforge.net/DTD/sodipodi-0.dtd"
   xmlns:inkscape="http://www.inkscape.org/namespaces/inkscape"
   width="237.52196"
   height="244.55246"
   id="svg2"
   sodipodi:version="0.32"
   inkscape:version="0.48.2 r9819"
   version="1.0"
   sodipodi:docname="Brown_Flower_clip_art.svg"
   inkscape:output_extension="org.inkscape.output.svg.inkscape">
  <defs
     id="defs4" />
  <sodipodi:namedview
     id="base"
     pagecolor="#ffffff"
     bordercolor="#666666"
     borderopacity="1.0"
     inkscape:pageopacity="0.0"
     inkscape:pageshadow="2"
     inkscape:zoom="2.9155299"
     inkscape:cx="58.051604"
     inkscape:cy="132.58041"
     inkscape:document-units="mm"
     inkscape:current-layer="layer1"
     inkscape:window-width="1594"
     inkscape:window-height="1111"
     inkscape:window-x="0"
     inkscape:window-y="24"
     showgrid="false"
     inkscape:window-maximized="0" />
  <metadata
     id="metadata7">
    <rdf:RDF>
      <cc:Work
         rdf:about="">
        <dc:format>image/svg+xml</dc:format>
        <dc:type
           rdf:resource="http://purl.org/dc/dcmitype/StillImage" />
        <dc:title></dc:title>
      </cc:Work>
    </rdf:RDF>
  </metadata>
  <g
     inkscape:label="Calque 1"
     inkscape:groupmode="layer"
     id="layer1"
     transform="translate(-234.44547,-298.20755)">
    <g
       id="g3844"
       style="fill:none">
      <path
         sodipodi:nodetypes="ccc"
         inkscape:connector-curvature="0"
         id="path2999"
         d="m 329.11094,329.41972 c -1.12656,-21.11081 39.64327,-24.01573 40.12992,-2.05794 1.14256,100.89526 -39.79387,100.2784 -40.12992,2.05794 z"
         style="fill:none;stroke:#000000;stroke-width:1px;stroke-linecap:butt;stroke-linejoin:miter;stroke-opacity:1;fill-opacity:1" />
      <path
         style="fill:none;stroke:#000000;stroke-width:1px;stroke-linecap:butt;stroke-linejoin:miter;stroke-opacity:1;fill-opacity:1"
         d="m 270.69083,371.07408 c -16.00374,-13.81361 10.14764,-45.22577 26.3188,-30.36391 73.54825,69.07832 44.74186,98.17065 -26.3188,30.36391 z"
         id="path3023"
         inkscape:connector-curvature="0"
         sodipodi:nodetypes="ccc" />
      <path
         sodipodi:nodetypes="ccc"
         inkscape:connector-curvature="0"
         id="path3038"
         d="m 429.32524,368.67315 c 16.00374,-13.81361 -10.14764,-45.22577 -26.3188,-30.36391 -73.54825,69.07832 -44.74186,98.17065 26.3188,30.36391 z"
         style="fill:none;stroke:#000000;stroke-width:1px;stroke-linecap:butt;stroke-linejoin:miter;stroke-opacity:1;fill-opacity:1" />
      <path
         style="fill:none;stroke:#000000;stroke-width:1px;stroke-linecap:butt;stroke-linejoin:miter;stroke-opacity:1;fill-opacity:1"
         d="m 331.51188,507.9317 c -1.12656,21.11081 39.64327,24.01573 40.12992,2.05794 1.14256,-100.89526 -39.79387,-100.2784 -40.12992,-2.05794 z"
         id="path3062"
         inkscape:connector-curvature="0"
         sodipodi:nodetypes="ccc" />
      <path
         sodipodi:nodetypes="ccc"
         inkscape:connector-curvature="0"
         id="path3064"
         d="m 260.26317,398.61047 c -21.11081,-1.12656 -24.01573,39.64327 -2.05794,40.12992 100.89526,1.14256 100.2784,-39.79387 2.05794,-40.12992 z"
         style="fill:none;stroke:#000000;stroke-width:1px;stroke-linecap:butt;stroke-linejoin:miter;stroke-opacity:1;fill-opacity:1" />
      <path
         sodipodi:nodetypes="ccc"
         inkscape:connector-curvature="0"
         id="path3066"
         d="m 439.11816,438.05496 c 21.11081,1.12656 24.01573,-39.64327 2.05794,-40.12992 -100.89526,-1.14256 -100.2784,39.79387 -2.05794,40.12992 z"
         style="fill:none;fill-opacity:1;stroke:#000000;stroke-width:1px;stroke-linecap:butt;stroke-linejoin:miter;stroke-opacity:1" />
      <path
         style="fill:none;stroke:#000000;stroke-width:1px;stroke-linecap:butt;stroke-linejoin:miter;stroke-opacity:1;fill-opacity:1"
         d="m 431.0402,467.57571 c 16.00374,13.81361 -10.14764,45.22577 -26.3188,30.36391 -73.54825,-69.07832 -44.74186,-98.17065 26.3188,-30.36391 z"
         id="path3068"
         inkscape:connector-curvature="0"
         sodipodi:nodetypes="ccc" />
      <path
         style="fill:none;stroke:#000000;stroke-width:1px;stroke-linecap:butt;stroke-linejoin:miter;stroke-opacity:1;fill-opacity:1"
         d="m 272.74877,466.54674 c -16.00374,13.81361 10.14764,45.22577 26.3188,30.36391 73.54825,-69.07832 44.74186,-98.17065 -26.3188,-30.36391 z"
         id="path3072"
         inkscape:connector-curvature="0"
         sodipodi:nodetypes="ccc" />
    </g>
    <path
       sodipodi:type="arc"
       style="opacity:1;fill:#000000;fill-rule:nonzero;stroke:#000000;stroke-width:1px;stroke-linecap:butt;stroke-linejoin:miter;stroke-opacity:1;fill-opacity:1"
       id="path3074"
       sodipodi:cx="118.33183"
       sodipodi:cy="122.10474"
       sodipodi:rx="29.497211"
       sodipodi:ry="28.125248"
       d="m 147.82904,122.10474 a 29.497211,28.125248 0 1 1 -58.994419,0 29.497211,28.125248 0 1 1 58.994419,0 z"
       transform="matrix(1.0511807,0,0,1.084165,226.84571,286.21565)" />
  </g>
</svg>
