<?xml version="1.0" encoding="UTF-8" standalone="no"?>
<!-- Created with Inkscape (http://www.inkscape.org/) -->

<svg
   xmlns:dc="http://purl.org/dc/elements/1.1/"
   xmlns:cc="http://creativecommons.org/ns#"
   xmlns:rdf="http://www.w3.org/1999/02/22-rdf-syntax-ns#"
   xmlns:svg="http://www.w3.org/2000/svg"
   xmlns="http://www.w3.org/2000/svg"
   xmlns:sodipodi="http://sodipodi.sourceforge.net/DTD/sodipodi-0.dtd"
   xmlns:inkscape="http://www.inkscape.org/namespaces/inkscape"
   width="64px"
   height="64px"
   id="svg2993"
   version="1.1"
   inkscape:version="0.48.2 r9819"
   sodipodi:docname="drawing.png">
  <defs
     id="defs2995">
    <inkscape:path-effect
       effect="spiro"
       id="path-effect3950"
       is_visible="true" />
    <inkscape:path-effect
       effect="spiro"
       id="path-effect3946"
       is_visible="true" />
    <inkscape:path-effect
       effect="spiro"
       id="path-effect3942"
       is_visible="true" />
    <inkscape:path-effect
       effect="spiro"
       id="path-effect3891"
       is_visible="true" />
    <inkscape:path-effect
       effect="spiro"
       id="path-effect3887"
       is_visible="true" />
    <inkscape:path-effect
       effect="spiro"
       id="path-effect3865"
       is_visible="true" />
    <inkscape:path-effect
       effect="spiro"
       id="path-effect3942-1"
       is_visible="true" />
    <inkscape:path-effect
       effect="spiro"
       id="path-effect3942-1-4"
       is_visible="true" />
    <inkscape:path-effect
       effect="spiro"
       id="path-effect3942-1-4-9"
       is_visible="true" />
  </defs>
  <sodipodi:namedview
     id="base"
     pagecolor="#ffffff"
     bordercolor="#666666"
     borderopacity="1.0"
     inkscape:pageopacity="0.0"
     inkscape:pageshadow="2"
     inkscape:zoom="5.5"
     inkscape:cx="1.8181818"
     inkscape:cy="32"
     inkscape:current-layer="layer6"
     showgrid="true"
     inkscape:document-units="px"
     inkscape:grid-bbox="true"
     inkscape:window-width="2560"
     inkscape:window-height="1378"
     inkscape:window-x="-8"
     inkscape:window-y="-8"
     inkscape:window-maximized="0" />
  <metadata
     id="metadata2998">
    <rdf:RDF>
      <cc:Work
         rdf:about="">
        <dc:format>image/svg+xml</dc:format>
        <dc:type
           rdf:resource="http://purl.org/dc/dcmitype/StillImage" />
        <dc:title></dc:title>
      </cc:Work>
    </rdf:RDF>
  </metadata>
  <g
     id="layer1"
     inkscape:label="Layer 1"
     inkscape:groupmode="layer">
    <g
       inkscape:groupmode="layer"
       id="layer6"
       inkscape:label="Layer#1">
      <path
         sodipodi:type="star"
         style="fill:none;stroke:#000000;stroke-opacity:1"
         id="path4185"
         sodipodi:sides="6"
         sodipodi:cx="37.090908"
         sodipodi:cy="41.090908"
         sodipodi:r1="20.64257"
         sodipodi:r2="17.876989"
         sodipodi:arg1="-2.117258"
         sodipodi:arg2="-1.5936593"
         inkscape:flatsided="true"
         inkscape:rounded="0.001"
         inkscape:randomized="0"
         d="m 26.363636,23.454544 c 0.01764,-0.01073 20.619067,-0.481818 20.637176,-0.471908 0.01811,0.0099 10.7268,17.615727 10.727272,17.636364 4.72e-4,0.02064 -9.892268,18.097545 -9.909904,18.108273 C 47.800544,58.738 27.199113,59.20909 27.181004,59.19918 27.162896,59.18927 16.454204,41.583453 16.453732,41.562816 16.45326,41.542179 26.346,23.465271 26.363636,23.454544 z"
         transform="matrix(0.99960728,0.02802298,-0.02802298,0.99960728,-7.9248531,-11.205078)" />
      <path
         sodipodi:type="star"
         style="fill:none;stroke:#000000;stroke-opacity:1"
         id="path4185-8"
         sodipodi:sides="6"
         sodipodi:cx="37.090908"
         sodipodi:cy="41.090908"
         sodipodi:r1="20.64257"
         sodipodi:r2="17.876989"
         sodipodi:arg1="-2.117258"
         sodipodi:arg2="-1.5936593"
         inkscape:flatsided="true"
         inkscape:rounded="0.001"
         inkscape:randomized="0"
         d="m 26.363636,23.454544 c 0.01764,-0.01073 20.619067,-0.481818 20.637176,-0.471908 0.01811,0.0099 10.7268,17.615727 10.727272,17.636364 4.72e-4,0.02064 -9.892268,18.097545 -9.909904,18.108273 C 47.800544,58.738 27.199113,59.20909 27.181004,59.19918 27.162896,59.18927 16.454204,41.583453 16.453732,41.562816 16.45326,41.542179 26.346,23.465271 26.363636,23.454544 z"
         transform="matrix(0.99960728,0.02802298,-0.02802298,0.99960728,-7.924852,24.613104)" />
      <path
         sodipodi:type="star"
         style="fill:none;stroke:#000000;stroke-opacity:1"
         id="path4185-82"
         sodipodi:sides="6"
         sodipodi:cx="37.090908"
         sodipodi:cy="41.090908"
         sodipodi:r1="20.64257"
         sodipodi:r2="17.876989"
         sodipodi:arg1="-2.117258"
         sodipodi:arg2="-1.5936593"
         inkscape:flatsided="true"
         inkscape:rounded="0.001"
         inkscape:randomized="0"
         d="m 26.363636,23.454544 c 0.01764,-0.01073 20.619067,-0.481818 20.637176,-0.471908 0.01811,0.0099 10.7268,17.615727 10.727272,17.636364 4.72e-4,0.02064 -9.892268,18.097545 -9.909904,18.108273 C 47.800544,58.738 27.199113,59.20909 27.181004,59.19918 27.162896,59.18927 16.454204,41.583453 16.453732,41.562816 16.45326,41.542179 26.346,23.465271 26.363636,23.454544 z"
         transform="matrix(0.99960728,0.02802298,-0.02802298,0.99960728,-39.015761,6.4312862)" />
      <path
         sodipodi:type="star"
         style="fill:none;stroke:#000000;stroke-opacity:1"
         id="path4185-4"
         sodipodi:sides="6"
         sodipodi:cx="37.090908"
         sodipodi:cy="41.090908"
         sodipodi:r1="20.64257"
         sodipodi:r2="17.876989"
         sodipodi:arg1="-2.117258"
         sodipodi:arg2="-1.5936593"
         inkscape:flatsided="true"
         inkscape:rounded="0.001"
         inkscape:randomized="0"
         d="m 26.363636,23.454544 c 0.01764,-0.01073 20.619067,-0.481818 20.637176,-0.471908 0.01811,0.0099 10.7268,17.615727 10.727272,17.636364 4.72e-4,0.02064 -9.892268,18.097545 -9.909904,18.108273 C 47.800544,58.738 27.199113,59.20909 27.181004,59.19918 27.162896,59.18927 16.454204,41.583453 16.453732,41.562816 16.45326,41.542179 26.346,23.465271 26.363636,23.454544 z"
         transform="matrix(0.99960728,0.02802298,-0.02802298,0.99960728,-38.288489,-29.568715)" />
      <path
         sodipodi:type="star"
         style="fill:none;stroke:#000000;stroke-opacity:1"
         id="path4185-5"
         sodipodi:sides="6"
         sodipodi:cx="37.090908"
         sodipodi:cy="41.090908"
         sodipodi:r1="20.64257"
         sodipodi:r2="17.876989"
         sodipodi:arg1="-2.117258"
         sodipodi:arg2="-1.5936593"
         inkscape:flatsided="true"
         inkscape:rounded="0.001"
         inkscape:randomized="0"
         d="m 26.363636,23.454544 c 0.01764,-0.01073 20.619067,-0.481818 20.637176,-0.471908 0.01811,0.0099 10.7268,17.615727 10.727272,17.636364 4.72e-4,0.02064 -9.892268,18.097545 -9.909904,18.108273 C 47.800544,58.738 27.199113,59.20909 27.181004,59.19918 27.162896,59.18927 16.454204,41.583453 16.453732,41.562816 16.45326,41.542179 26.346,23.465271 26.363636,23.454544 z"
         transform="matrix(0.99960728,0.02802298,-0.02802298,0.99960728,-7.197579,-47.205078)" />
      <path
         sodipodi:type="star"
         style="fill:none;stroke:#000000;stroke-opacity:1"
         id="path4185-51"
         sodipodi:sides="6"
         sodipodi:cx="37.090908"
         sodipodi:cy="41.090908"
         sodipodi:r1="20.64257"
         sodipodi:r2="17.876989"
         sodipodi:arg1="-2.117258"
         sodipodi:arg2="-1.5936593"
         inkscape:flatsided="true"
         inkscape:rounded="0.001"
         inkscape:randomized="0"
         d="m 26.363636,23.454544 c 0.01764,-0.01073 20.619067,-0.481818 20.637176,-0.471908 0.01811,0.0099 10.7268,17.615727 10.727272,17.636364 4.72e-4,0.02064 -9.892268,18.097545 -9.909904,18.108273 C 47.800544,58.738 27.199113,59.20909 27.181004,59.19918 27.162896,59.18927 16.454204,41.583453 16.453732,41.562816 16.45326,41.542179 26.346,23.465271 26.363636,23.454544 z"
         transform="matrix(0.99960728,0.02802298,-0.02802298,0.99960728,22.80242,6.4312859)" />
      <path
         sodipodi:type="star"
         style="fill:none;stroke:#000000;stroke-opacity:1"
         id="path4185-7"
         sodipodi:sides="6"
         sodipodi:cx="37.090908"
         sodipodi:cy="41.090908"
         sodipodi:r1="20.64257"
         sodipodi:r2="17.876989"
         sodipodi:arg1="-2.117258"
         sodipodi:arg2="-1.5936593"
         inkscape:flatsided="true"
         inkscape:rounded="0.001"
         inkscape:randomized="0"
         d="m 26.363636,23.454544 c 0.01764,-0.01073 20.619067,-0.481818 20.637176,-0.471908 0.01811,0.0099 10.7268,17.615727 10.727272,17.636364 4.72e-4,0.02064 -9.892268,18.097545 -9.909904,18.108273 C 47.800544,58.738 27.199113,59.20909 27.181004,59.19918 27.162896,59.18927 16.454204,41.583453 16.453732,41.562816 16.45326,41.542179 26.346,23.465271 26.363636,23.454544 z"
         transform="matrix(0.99960728,0.02802298,-0.02802298,0.99960728,24.256966,-29.568714)" />
    </g>
    <g
       inkscape:groupmode="layer"
       id="layer3"
       inkscape:label="Layer">
      <path
         sodipodi:type="arc"
         style="fill:#ffffff;fill-opacity:1;stroke:#000000;stroke-opacity:1"
         id="path3873"
         sodipodi:cx="39.81818"
         sodipodi:cy="24"
         sodipodi:rx="14.727273"
         sodipodi:ry="10.181818"
         d="m 54.545453,24 a 14.727273,10.181818 0 1 1 -29.454546,0 14.727273,10.181818 0 1 1 29.454546,0 z"
         transform="matrix(1.1942661,0,0,1,-2.3288574,5.0909091)" />
      <path
         sodipodi:type="arc"
         style="fill:#ffffff;fill-opacity:1;stroke:#000000;stroke-opacity:1"
         id="path3877"
         sodipodi:cx="51.272728"
         sodipodi:cy="16.818182"
         sodipodi:rx="13.090909"
         sodipodi:ry="5.3381953"
         d="m 64.363637,16.818182 a 13.090909,5.3381953 0 1 1 -26.181818,0 13.090909,5.3381953 0 1 1 26.181818,0 z"
         transform="matrix(0.65831931,-0.65920105,0.81518989,0.83939867,-2.5547462,32.32227)" />
      <path
         sodipodi:type="arc"
         style="fill:#ffffff;fill-opacity:1;stroke:#000000;stroke-opacity:1"
         id="path3881"
         sodipodi:cx="33.81818"
         sodipodi:cy="46.272728"
         sodipodi:rx="12.181818"
         sodipodi:ry="5.909091"
         d="m 45.999998,46.272728 a 12.181818,5.909091 0 1 1 -24.363636,0 12.181818,5.909091 0 1 1 24.363636,0 z"
         transform="matrix(0.9896893,-0.43725587,0.42009818,1.0301103,-3.6358544,-15.151541)" />
      <path
         sodipodi:type="star"
         style="fill:#ffffff;fill-opacity:1;stroke:#000000;stroke-opacity:1"
         id="path3883"
         sodipodi:sides="3"
         sodipodi:cx="62"
         sodipodi:cy="26.363636"
         sodipodi:r1="1.8272501"
         sodipodi:r2="0.91362506"
         sodipodi:arg1="-0.099668652"
         sodipodi:arg2="0.9475289"
         inkscape:flatsided="true"
         inkscape:rounded="0.001"
         inkscape:randomized="0"
         d="m 63.818182,26.181818 c 3.15e-4,0.0031 -2.566929,1.848621 -2.569814,1.847319 -0.0029,-0.0013 -0.317488,-3.147336 -0.314918,-3.149184 0.0026,-0.0018 2.884417,1.298716 2.884732,1.301865 z"
         inkscape:transform-center-x="-0.37580806"
         inkscape:transform-center-y="0.090908452"
         transform="translate(1.2727273,2.7272727)" />
      <path
         style="fill:none;stroke:#000000;stroke-width:1.20125628px;stroke-linecap:butt;stroke-linejoin:miter;stroke-opacity:1"
         d="m 47.99585,25.646083 c 0.719514,1.279491 1.238474,2.671502 1.532164,4.109745 0.599493,2.935802 0.236012,6.06014 -1.021442,8.779907"
         id="path3940-7"
         inkscape:path-effect="#path-effect3942-1"
         inkscape:original-d="m 47.99585,25.646083 c 1.532164,4.109745 -25.791418,21.109141 1.532164,4.109745 27.323583,-16.999398 -1.021442,8.779907 -1.021442,8.779907"
         inkscape:connector-curvature="0" />
      <path
         style="fill:none;stroke:#000000;stroke-width:1.20125628px;stroke-linecap:butt;stroke-linejoin:miter;stroke-opacity:1"
         d="m 34.911088,23.918811 c 0.719514,1.279491 1.238474,2.671502 1.532164,4.109745 0.599493,2.935802 0.236012,6.06014 -1.021442,8.779907"
         id="path3940-7-0"
         inkscape:path-effect="#path-effect3942-1-4"
         inkscape:original-d="m 34.911088,23.918811 c 1.532164,4.109745 -25.7914184,21.109141 1.532164,4.109745 27.323583,-16.999398 -1.021442,8.779907 -1.021442,8.779907"
         inkscape:connector-curvature="0" />
      <path
         style="fill:none;stroke:#000000;stroke-width:1.14839292px;stroke-linecap:butt;stroke-linejoin:miter;stroke-opacity:1"
         d="m 54.157383,22.983288 c 0.598009,1.454401 1.025106,2.978992 1.269702,4.532398 0.508952,3.232307 0.215611,6.587877 -0.846467,9.682845"
         id="path3940-7-0-4"
         inkscape:path-effect="#path-effect3942-1-4-9"
         inkscape:original-d="m 54.157383,22.983288 c 1.269702,4.532398 -21.373311,23.280036 1.269702,4.532398 22.643015,-18.7476414 -0.846467,9.682845 -0.846467,9.682845"
         inkscape:connector-curvature="0" />
      <path
         style="fill:#ffffff;fill-opacity:1;stroke:#000000;stroke-width:0.18181819;stroke-opacity:1"
         d=""
         id="path4065"
         inkscape:connector-curvature="0" />
      <path
         style="fill:#ffffff;fill-opacity:1;stroke:#000000;stroke-width:0.18181819;stroke-opacity:1"
         d=""
         id="path4067"
         inkscape:connector-curvature="0" />
      <path
         style="fill:#ffffff;fill-opacity:1;stroke:#000000;stroke-width:0.18181819;stroke-opacity:1"
         d=""
         id="path4069"
         inkscape:connector-curvature="0" />
      <path
         style="fill:#ffffff;fill-opacity:1;stroke:#000000;stroke-width:0.18181819;stroke-opacity:1"
         d=""
         id="path4071"
         inkscape:connector-curvature="0" />
      <path
         style="fill:#ffffff;fill-opacity:1;stroke:#000000;stroke-width:0.18181819;stroke-opacity:1"
         d=""
         id="path4073"
         inkscape:connector-curvature="0" />
      <path
         style="fill:#ffffff;fill-opacity:1;stroke:#000000;stroke-width:0.18181819;stroke-opacity:1"
         d=""
         id="path4087"
         inkscape:connector-curvature="0" />
      <path
         style="fill:#ffffff;fill-opacity:1;stroke:#000000;stroke-width:0.18181819;stroke-opacity:1"
         d=""
         id="path4089"
         inkscape:connector-curvature="0" />
      <path
         style="fill:#ffffff;fill-opacity:1;stroke:#000000;stroke-width:0.18181819;stroke-opacity:1"
         d=""
         id="path4117"
         inkscape:connector-curvature="0" />
      <path
         style="fill:#ffffff;fill-opacity:1;stroke:#000000;stroke-width:0.18181819;stroke-opacity:1"
         d=""
         id="path4119"
         inkscape:connector-curvature="0" />
      <path
         style="fill:#ffffff;fill-opacity:1;stroke:#000000;stroke-width:0.18181819;stroke-opacity:1"
         d=""
         id="path4121"
         inkscape:connector-curvature="0" />
      <path
         style="fill:#ffffff;fill-opacity:1;stroke:#000000;stroke-width:0.18181819;stroke-opacity:1"
         d=""
         id="path4123"
         inkscape:connector-curvature="0" />
      <path
         style="fill:#ffffff;fill-opacity:1;stroke:#000000;stroke-width:0.18181819;stroke-opacity:1"
         d=""
         id="path4125"
         inkscape:connector-curvature="0" />
      <path
         style="fill:#ffffff;fill-opacity:1;stroke:#000000;stroke-width:0.18181819;stroke-opacity:1"
         d=""
         id="path4127"
         inkscape:connector-curvature="0" />
      <path
         style="fill:#ffffff;fill-opacity:1;stroke:#000000;stroke-width:0.18181819;stroke-opacity:1"
         d=""
         id="path4129"
         inkscape:connector-curvature="0" />
      <path
         style="fill:#ffffff;fill-opacity:1;stroke:#000000;stroke-width:0.18181819;stroke-opacity:1"
         d=""
         id="path4131"
         inkscape:connector-curvature="0" />
      <path
         style="fill:#ffffff;fill-opacity:1;stroke:#000000;stroke-width:0.18181819;stroke-opacity:1"
         d=""
         id="path4133"
         inkscape:connector-curvature="0" />
      <path
         style="fill:#ffffff;fill-opacity:1;stroke:#000000;stroke-width:0.18181819;stroke-opacity:1"
         d="m 40.909091,37.506149 c 0,-0.212242 -0.213166,-0.442754 -0.545455,-0.589839 -0.3,-0.132793 -0.545454,-0.308116 -0.545454,-0.389606 0,-0.08149 0.06136,-0.119023 0.136363,-0.08341 0.886931,0.4212 1.114394,0.608986 1.184991,0.978291 0.04552,0.238126 0.01229,0.432956 -0.07384,0.432956 -0.08613,0 -0.156605,-0.156778 -0.156605,-0.348396 z"
         id="path4135"
         inkscape:connector-curvature="0" />
      <path
         style="fill:#ffffff;fill-opacity:1;stroke:#000000;stroke-width:0.18181819;stroke-opacity:1"
         d=""
         id="path4137"
         inkscape:connector-curvature="0" />
      <path
         style="fill:#ffffff;fill-opacity:1;stroke:#000000;stroke-width:0.18181819;stroke-opacity:1"
         d=""
         id="path4139"
         inkscape:connector-curvature="0" />
      <path
         style="fill:#ffffff;fill-opacity:1;stroke:#000000;stroke-width:0.18181819;stroke-opacity:1"
         d=""
         id="path4141"
         inkscape:connector-curvature="0" />
      <path
         style="fill:#000000;fill-opacity:1;stroke:#000000;stroke-width:0.18181818999999999;stroke-opacity:1"
         d=""
         id="path4143"
         inkscape:connector-curvature="0" />
      <path
         style="fill:#000000;fill-opacity:1;stroke:#000000;stroke-width:0.18181819;stroke-opacity:1"
         d=""
         id="path4145"
         inkscape:connector-curvature="0" />
      <path
         style="fill:#000000;fill-opacity:1;stroke:#000000;stroke-width:0.18181819;stroke-opacity:1"
         d=""
         id="path4147"
         inkscape:connector-curvature="0" />
      <path
         style="fill:#000000;fill-opacity:1;stroke:#000000;stroke-width:0.18181819;stroke-opacity:1"
         d=""
         id="path4149"
         inkscape:connector-curvature="0" />
      <path
         style="fill:#000000;fill-opacity:1;stroke:#000000;stroke-width:0.18181819;stroke-opacity:1"
         d=""
         id="path4151"
         inkscape:connector-curvature="0" />
      <path
         style="fill:#000000;fill-opacity:1;stroke:#000000;stroke-width:0.18181819;stroke-opacity:1"
         d=""
         id="path4153"
         inkscape:connector-curvature="0" />
      <path
         style="fill:#000000;fill-opacity:1;stroke:#000000;stroke-width:0.18181819;stroke-opacity:1"
         d=""
         id="path4155"
         inkscape:connector-curvature="0" />
      <path
         style="fill:#000000;fill-opacity:1;stroke:#000000;stroke-width:0.18181819;stroke-opacity:1"
         d=""
         id="path4159"
         inkscape:connector-curvature="0" />
      <path
         style="fill:#000000;fill-opacity:1;stroke:#000000;stroke-width:0.18181819;stroke-opacity:1"
         d="m 49.533414,37.837738 c 1.316239,-4.228379 1.197257,-7.948771 -0.361832,-11.313905 l -0.423696,-0.914503 1.035148,-0.348492 c 0.569331,-0.191671 1.643163,-0.628936 2.386294,-0.971701 0.74313,-0.342765 1.410476,-0.560316 1.482991,-0.483446 0.233628,0.247658 0.846096,2.462945 1.07675,3.894585 0.329353,2.044259 0.155267,5.653902 -0.377485,7.827069 l -0.432373,1.763709 -1.373133,0.370511 c -0.755223,0.203781 -1.772686,0.425276 -2.261029,0.492211 -0.875042,0.119937 -0.885925,0.115362 -0.751635,-0.316038 l 0,0 z"
         id="path4161"
         inkscape:connector-curvature="0" />
      <path
         style="fill:#000000;fill-opacity:1;stroke:#000000;stroke-width:0.18181819;stroke-opacity:1"
         d="m 39.806004,38.116811 c -0.656697,-0.124876 -1.775037,-0.400088 -2.485199,-0.611584 l -1.291204,-0.384537 0.412587,-1.052793 c 0.987897,-2.520809 1.179702,-6.082211 0.476616,-8.849715 -0.228646,-0.9 -0.520788,-1.841586 -0.649204,-2.092414 -0.197598,-0.385958 -0.185492,-0.548857 0.07877,-1.059884 l 0.312254,-0.603833 0.426019,0.621734 c 0.545449,0.796031 1.422953,1.402221 2.703022,1.86728 l 1.016346,0.369247 0.4117,1.314551 c 0.802389,2.562017 0.943852,5.448273 0.409112,8.347062 l -0.207968,1.12738 -0.705815,-0.445562 c -0.388198,-0.245058 -0.789259,-0.445561 -0.891246,-0.445561 -0.37591,0 -0.170105,0.533949 0.316626,0.821468 0.412542,0.243695 1.06471,1.161341 0.905127,1.273579 -0.02395,0.01685 -0.580846,-0.07154 -1.237544,-0.196418 l 0,0 z"
         id="path4163"
         inkscape:connector-curvature="0" />
      <path
         style="fill:#000000;fill-opacity:1;stroke:#000000;stroke-width:0.18181819;stroke-opacity:1"
         d=""
         id="path4165"
         inkscape:connector-curvature="0" />
      <path
         style="fill:#000000;fill-opacity:1;stroke:#000000;stroke-width:0.18181819;stroke-opacity:1"
         d="M 40.896084,39.394545 C 33.27928,38.207098 27.855098,34.452929 27.294009,29.98032 l -0.112191,-0.894313 -1.092935,-0.395298 c -6.629067,-2.397634 -8.419789,-11.769914 -3.2407,-16.961171 0.617304,-0.618754 1.026723,-1.090063 0.909821,-1.047354 -0.118849,0.04342 -0.719407,-0.8031911 -1.362301,-1.9204467 l -1.149752,-1.9981009 -1.441157,0 c -1.319946,0 -1.441158,-0.030585 -1.441158,-0.3636364 0,-0.3374711 0.121015,-0.3635936 1.681819,-0.3630429 l 1.681818,6e-4 0.909091,1.5700125 c 0.5,0.8635069 1.080753,1.8819208 1.290564,2.2631417 0.361469,0.6567817 0.401914,0.6788117 0.771277,0.4200997 0.544845,-0.3816305 2.349286,-0.9817201 2.951966,-0.9817201 0.476195,0 0.494555,-0.030749 0.352819,-0.5909091 -0.08223,-0.325 -0.199855,-0.8156302 -0.26138,-1.0902894 C 27.653371,7.2339742 27.36452,6.994946 26.373856,6.4960556 25.000542,5.8044658 24.853014,5.6667831 25.01974,5.2323031 25.11392,4.9868756 25.386114,5.0768949 26.744395,5.8026749 l 1.612825,0.8617929 0.294187,1.3223115 c 0.276661,1.2435383 0.32349,1.3223116 0.786086,1.3223116 1.638984,0 4.323354,1.6091221 5.68555,3.4081541 l 0.850316,1.123 0.584137,-1.038304 c 1.89242,-3.3637795 5.151193,-6.6859723 8.302449,-8.4640248 1.971135,-1.112186 3.47351,-1.6105178 5.156782,-1.7104848 1.859973,-0.1104611 2.656918,0.1062585 3.632778,0.9878897 1.04782,0.9466429 1.333908,1.8890038 1.209011,3.9824489 l -0.10346,1.7341113 0.486109,-0.1064711 c 0.598013,-0.1309813 3.152699,0.3102802 4.070248,0.7030391 1.612578,0.6902677 2.677174,2.1905957 2.684594,3.7833787 0.0087,1.859928 -1.330854,4.238702 -3.532923,6.273923 -0.77002,0.711678 -1.189009,1.218518 -1.050059,1.270227 0.6103,0.227111 2.42392,1.587418 3.373222,2.530084 0.713817,0.708827 1.2768,1.503609 1.727273,2.438447 0.666151,1.382416 0.672615,1.388867 2.011891,2.008455 l 1.343594,0.621581 -1.372109,0.970839 c -1.19574,0.846047 -1.44808,1.126494 -1.963151,2.181818 -1.764665,3.615613 -6.762676,6.464207 -12.955081,7.383691 -2.292915,0.340465 -6.510739,0.34224 -8.68258,0.0037 l 0,-2e-6 z m 7.467552,-0.812727 c 0.303031,-0.09705 0.348486,-0.151613 0.136364,-0.163694 -0.391258,-0.02229 -0.401285,-0.320273 -0.03988,-1.185235 1.216958,-2.912593 0.961244,-7.72666 -0.567454,-10.682836 -0.155713,-0.301115 -0.256626,-0.568722 -0.224253,-0.59468 0.03237,-0.02596 0.222498,-0.14726 0.422498,-0.26956 0.319771,-0.195537 0.322504,-0.209371 0.02264,-0.114675 -0.924011,0.291798 -3.590404,0.647044 -4.856577,0.647044 l -1.422663,0 L 42.072544,26.9 c 0.131025,0.375 0.383471,1.418182 0.560987,2.318182 0.622362,3.155331 0.0082,9.193494 -0.918298,9.028169 -0.193378,-0.03451 -0.365588,-0.07577 -0.382689,-0.0917 -0.01711,-0.01593 0.137598,-0.683148 0.343772,-1.482715 0.686784,-2.663403 0.480906,-7.138031 -0.450718,-9.79608 -0.221754,-0.632693 -0.3624,-0.747589 -1.355176,-1.107065 -1.330477,-0.481753 -2.400666,-1.291078 -2.877126,-2.175811 l -0.350587,-0.651 -0.408862,0.926434 c -0.362342,0.821031 -0.380808,0.981548 -0.162295,1.410828 0.378404,0.743396 0.810272,2.37378 1.019435,3.84858 0.250773,1.768172 -0.03123,4.471903 -0.661018,6.337647 -0.412338,1.221549 -0.535142,1.418436 -0.835693,1.33984 -0.505118,-0.132091 -0.551715,-0.405173 -0.225663,-1.322496 1.003578,-2.823493 1.061849,-5.73886 0.175638,-8.78732 l -0.304323,-1.046835 -1.029055,0.979309 c -0.56598,0.53862 -1.397237,1.194326 -1.847237,1.457124 -0.919554,0.537018 -2.66889,1.04218 -3.60898,1.04218 l -0.623489,0 0.106196,0.896656 c 0.45734,3.861527 5.711444,7.391256 12.580819,8.451844 1.766585,0.272749 6.803863,0.343543 7.545454,0.106045 z m 2.325848,-0.284136 c 2.451558,-0.497049 3.905081,-0.983066 3.695452,-1.235653 -0.129263,-0.155754 -0.07378,-0.637365 0.181951,-1.57942 0.256722,-0.945707 0.398557,-2.18314 0.469284,-4.094282 0.107927,-2.916342 -0.09836,-4.555854 -0.871546,-6.926682 l -0.365316,-1.120174 -1.308745,0.602424 c -0.719809,0.331332 -1.881473,0.794 -2.581473,1.02815 -0.7,0.234151 -1.305118,0.444984 -1.344707,0.468519 -0.03959,0.02353 0.137998,0.514943 0.394636,1.092021 1.653696,3.718502 1.719407,7.81084 0.189444,11.797866 -0.119289,0.310858 -0.157877,0.311678 1.54102,-0.03277 l 0,0 z m 5.94688,-1.946602 c 2.069336,-1.041107 4.226551,-2.980451 4.998571,-4.493733 0.377696,-0.740345 0.394376,-0.932312 0.272072,-3.131187 l -0.130292,-2.342487 -0.803611,-1.091628 c -0.75902,-1.031054 -2.132468,-2.172463 -3.809309,-3.165738 l -0.745297,-0.441476 -0.913034,0.584858 -0.913033,0.584856 0.349573,1 c 0.548967,1.570386 1.019511,3.774073 1.153551,5.402395 0.141034,1.713285 -0.163584,4.831478 -0.63974,6.548645 L 55.137,36.955331 55.523045,36.836155 c 0.212326,-0.06555 0.713319,-0.283831 1.113319,-0.485075 l 0,0 z m 7.082587,-6.928113 0.537131,-0.429771 -0.573557,-0.296598 c -0.8146,-0.421245 -0.955252,-0.37568 -0.955252,0.309462 0,0.966884 0.199494,1.050751 0.991678,0.416907 l 0,0 z M 29.988882,28.131084 c 1.211325,-0.165097 2.809845,-1.108729 3.932681,-2.321528 1.704957,-1.841556 2.481786,-3.862472 2.493657,-6.487227 0.0088,-1.947458 -0.281704,-3.215694 -1.0963,-4.785934 -0.815877,-1.572711 -1.748148,-2.618186 -3.011513,-3.377194 -0.891793,-0.535774 -2.967587,-1.2505359 -3.13771,-1.080413 -0.03518,0.03518 0.06027,0.539726 0.212121,1.121212 0.304497,1.166044 0.308539,1.139509 -0.187093,1.228169 -0.298313,0.05336 -0.390407,-0.120673 -0.616232,-1.164533 -0.297403,-1.3747262 -0.291922,-1.3718256 -1.822525,-0.964423 -2.134137,0.568046 -3.827278,2.007487 -4.983979,4.237182 -0.82799,1.596058 -1.109027,2.85203 -1.088284,4.863605 0.01731,1.678142 0.531478,3.855162 0.99869,4.228478 0.392944,0.313973 5.416528,0.63198 7.76716,0.491682 l 2.186809,-0.13052 0,0.458811 c 0,0.393634 -0.09685,0.47106 -0.681819,0.545056 -1.287228,0.162831 -6.318348,0.863704 -6.929455,0.965326 l -0.611273,0.101649 0.399814,0.425583 c 0.95609,1.017711 3.676342,2.000319 5.004551,1.80774 0.2,-0.029 0.726815,-0.102223 1.1707,-0.162721 l 0,0 z m 17.556573,-3.363266 c 4.022909,-1.062469 7.646736,-2.963558 10.254901,-5.379805 4.649244,-4.307134 4.342606,-8.363318 -0.689829,-9.124994 -1.451252,-0.219653 -4.478674,0.01153 -6.31664,0.482359 -3.130498,0.801933 -6.806243,2.618353 -9.154167,4.523657 -1.321862,1.07267 -2.898445,2.877362 -3.534335,4.045699 -0.672412,1.235446 -0.822098,2.891857 -0.344109,3.807904 0.446082,0.854898 1.648026,1.655475 2.917446,1.943217 1.503883,0.340887 5.026414,0.187998 6.866733,-0.298037 z M 40.16798,15.43492 c 2.964305,-2.788777 8.293505,-5.373324 12.311836,-5.9709764 0.736102,-0.1094812 1.341042,-0.2504745 1.344315,-0.3133183 0.0033,-0.062844 0.08039,-0.6869889 0.171373,-1.3869889 0.41404,-3.1855086 -1.238548,-4.7857671 -4.417775,-4.2778832 -4.474076,0.7147373 -9.630144,4.8246513 -12.403133,9.8865688 l -0.682054,1.245048 0.390093,1.698214 c 0.21455,0.934018 0.390092,1.883298 0.390092,2.109512 0,0.324272 0.167106,0.182395 0.789768,-0.670535 0.434372,-0.595009 1.38184,-1.638847 2.105485,-2.319641 z"
         id="path4167"
         inkscape:connector-curvature="0" />
      <path
         style="fill:#000000;fill-opacity:1;stroke:#000000;stroke-width:0.18181819;stroke-opacity:1"
         d="m 49.636364,37.984524 c 0,-0.0557 0.160068,-0.782727 0.355707,-1.615623 0.767499,-3.267487 0.650507,-6.131067 -0.365165,-8.938014 -0.295621,-0.816988 -0.55761,-1.553533 -0.582199,-1.636768 -0.02459,-0.08323 0.97802,-0.547151 2.22802,-1.030925 1.8898,-0.73139 2.297865,-0.834944 2.421921,-0.61461 0.08206,0.145739 0.346998,1.059655 0.588759,2.030925 0.685556,2.754205 0.571552,7.245804 -0.26211,10.326824 -0.198152,0.732325 -0.218585,0.746952 -1.463126,1.047338 -1.502604,0.362673 -2.921807,0.57195 -2.921807,0.430853 z"
         id="path4169"
         inkscape:connector-curvature="0" />
      <path
         style="fill:#000000;fill-opacity:1;stroke:#000000;stroke-width:0.18181819;stroke-opacity:1"
         d="m 41.184638,39.464051 c -4.497722,-0.576166 -9.031731,-2.53688 -11.430745,-4.943184 -1.216673,-1.220369 -2.201505,-2.884172 -2.385395,-4.029958 -0.24035,-1.497576 -0.236705,-1.491654 -1.048231,-1.703449 -1.966886,-0.513327 -4.300228,-2.553682 -5.398182,-4.720355 -0.613219,-1.210109 -1.103903,-3.393421 -1.103903,-4.911846 0,-2.668028 1.001029,-5.244853 2.817076,-7.25165 l 0.969133,-1.070927 -1.1937,-2.0345225 -1.1937,-2.0345231 -1.426677,0 c -1.305466,0 -1.426678,-0.030895 -1.426678,-0.3636364 0,-0.337728 0.121212,-0.3636364 1.701272,-0.3636364 l 1.701272,0 1.228945,2.1363637 c 0.67592,1.175 1.248457,2.1585637 1.272304,2.1856967 0.02385,0.02713 0.484794,-0.156094 1.024328,-0.4071715 C 25.831291,9.7001753 26.661364,9.4424349 27.136364,9.378496 28.087006,9.2505316 28.11365,9.1941871 27.80435,7.9658485 27.623841,7.2489795 27.507767,7.1350107 26.30435,6.4930571 25.586958,6.1103693 24.972075,5.7754067 24.937944,5.748696 c -0.03413,-0.026711 -0.0087,-0.2166869 0.05652,-0.4221695 0.113474,-0.357525 0.188381,-0.3385474 1.740434,0.4409408 1.330662,0.6682985 1.641815,0.9042998 1.733013,1.3144482 0.471263,2.11941 0.452733,2.0916785 1.543082,2.3093981 2.004958,0.4003479 4.120083,1.8039014 5.29762,3.5153924 0.539541,0.784196 0.585454,0.811233 0.81565,0.480315 0.13416,-0.192862 0.75169,-1.12793 1.372291,-2.07793 2.008284,-3.0742341 5.447215,-6.1343728 8.566868,-7.6232465 3.193189,-1.5239682 6.305029,-1.4838969 7.790567,0.1003194 0.85856,0.9155906 1.095611,1.7608241 1.026362,3.6596314 l -0.06217,1.7047318 1.309756,0.082595 c 6.701849,0.4226275 7.842426,5.6163949 2.359702,10.7452149 l -1.182949,1.10659 1.213727,0.829302 c 2.154566,1.472149 3.623675,3.121635 4.238138,4.758498 0.236635,0.630366 0.451442,0.81884 1.612091,1.414469 0.736495,0.37796 1.367208,0.715326 1.401584,0.749702 0.03438,0.03438 -0.540398,0.496118 -1.277276,1.026091 -1.124666,0.808873 -1.438499,1.155586 -1.954615,2.159389 -1.905982,3.706977 -6.715044,6.441277 -12.959676,7.368515 -2.059771,0.305847 -6.289799,0.342712 -8.394026,0.07316 l 0,0 z m 6.707451,-0.803304 c 0.280422,-0.07038 0.4116,-0.205405 0.35156,-0.361869 -0.05268,-0.137276 0.06977,-0.763865 0.272106,-1.392418 0.592947,-1.841973 0.735201,-2.84634 0.676754,-4.778067 -0.05658,-1.870066 -0.34988,-3.183218 -1.12898,-5.054684 -0.241231,-0.57946 -0.390293,-1.131733 -0.331245,-1.227273 0.133081,-0.215331 0.258061,-0.223987 -1.430097,0.09905 -0.783796,0.149984 -2.109712,0.272697 -2.94648,0.272697 l -1.521394,0 0.261294,0.740589 c 0.613775,1.739622 0.85928,3.826742 0.757673,6.441229 -0.11916,3.066113 -0.558944,4.947322 -1.132965,4.846351 -0.478057,-0.08409 -0.466706,-0.01275 -0.176857,-1.111507 0.425629,-1.613486 0.684095,-4.349584 0.532606,-5.638102 -0.0768,-0.653207 -0.124659,-1.251027 -0.106357,-1.328489 0.04767,-0.201764 -0.309412,-1.67658 -0.715792,-2.95636 C 40.92028,26.16121 40.871213,26.104568 40.096513,25.875826 38.913747,25.526597 37.72422,24.706783 37.157336,23.850165 l -0.497049,-0.751095 -0.322523,0.605011 c -0.424783,0.79684 -0.416622,0.997656 0.103863,2.555729 0.982464,2.940998 0.980195,6.237887 -0.0063,9.222862 -0.406043,1.228558 -0.518041,1.407096 -0.831296,1.325178 -0.515786,-0.13488 -0.563039,-0.404298 -0.232396,-1.325034 0.87363,-2.432782 0.988126,-5.926679 0.272918,-8.328213 -0.212945,-0.715031 -0.445073,-1.297378 -0.515838,-1.294106 -0.07077,0.0033 -0.496852,0.375288 -0.946852,0.826697 -1.410642,1.415062 -3.649829,2.44008 -5.330441,2.44008 l -0.718986,0 0.114403,0.834658 c 0.17756,1.295442 0.7342,2.349049 1.881639,3.561556 2.401488,2.537673 6.158767,4.237773 10.938749,4.949586 1.685647,0.25102 6.089974,0.372131 6.824907,0.187674 l 0,0 z m 3.835184,-0.65264 c 2.395102,-0.579698 2.598265,-0.667363 2.585667,-1.115703 -0.0062,-0.220822 0.134027,-1.05604 0.311627,-1.85604 0.425069,-1.914731 0.552106,-4.87914 0.298482,-6.965071 -0.219862,-1.80824 -1.007034,-4.580384 -1.30064,-4.580384 -0.09897,0 -0.565869,0.191996 -1.037544,0.426658 -0.471676,0.234662 -1.512138,0.656991 -2.312138,0.938508 -0.8,0.281518 -1.506265,0.559976 -1.569478,0.618796 -0.06321,0.05882 0.117766,0.638765 0.402175,1.288765 0.589509,1.347297 0.716465,1.211419 0.168069,-0.179878 l -0.362873,-0.920613 0.408327,-0.159763 c 0.224578,-0.08787 1.261213,-0.494189 2.303633,-0.902933 1.042418,-0.408744 1.933687,-0.704789 1.980596,-0.657878 0.04691,0.04691 0.290786,0.762204 0.541946,1.589542 0.819511,2.699514 0.738127,8.401256 -0.15948,11.173236 -0.176862,0.54618 -0.275673,0.598849 -1.79074,0.954546 -0.881953,0.207058 -1.827529,0.376469 -2.10128,0.376469 -0.473997,0 -0.492349,-0.03251 -0.384915,-0.681819 l 0.112815,-0.681818 -0.251446,0.557195 c -0.138294,0.306458 -0.307876,0.734996 -0.376847,0.952309 -0.144622,0.455664 -0.03763,0.448311 2.534044,-0.174124 l 0,0 z m 6.392989,-2.645042 c 1.651267,-1.07354 2.923745,-2.375783 3.515069,-3.597296 0.359524,-0.742676 0.381456,-0.984636 0.267491,-2.951025 -0.102826,-1.774209 -0.197933,-2.270975 -0.553882,-2.893039 -0.569524,-0.995316 -2.690907,-2.933047 -3.947915,-3.606136 -1.084832,-0.580894 -1.216649,-0.566064 -2.303669,0.259195 l -0.448098,0.340192 0.392886,1.151613 c 0.787843,2.309307 1.040005,3.93148 1.026909,6.606158 -0.0083,1.690953 -0.115758,3.003224 -0.320164,3.909091 -0.169234,0.75 -0.356616,1.592564 -0.416404,1.872366 l -0.108703,0.508729 0.706291,-0.31756 c 0.38846,-0.174658 1.374045,-0.751688 2.190189,-1.282288 l 0,0 z m -8.192231,0.540722 c -0.06042,-0.06042 -0.103389,0.04697 -0.09549,0.238637 0.0087,0.211809 0.05181,0.254891 0.109848,0.109849 0.05252,-0.131251 0.04606,-0.288069 -0.01435,-0.348486 l -7e-6,0 z m 0.181818,-0.909091 c -0.06042,-0.06042 -0.103389,0.04697 -0.09549,0.238637 0.0087,0.211809 0.05181,0.254891 0.109847,0.109849 0.05252,-0.131251 0.04606,-0.288069 -0.01435,-0.348486 l -7e-6,0 z m 0.196893,-1.642271 c -0.04551,-0.173834 -0.08109,0.01122 -0.07907,0.411211 0.002,0.4 0.03925,0.542228 0.08274,0.316062 0.04349,-0.226165 0.04184,-0.553438 -0.0037,-0.727273 l 4e-6,0 z m 0.0034,-2.816061 c -0.04334,-0.225 -0.07879,-0.04091 -0.07879,0.409091 0,0.45 0.03546,0.63409 0.07879,0.40909 0.04334,-0.225 0.04334,-0.593181 0,-0.818181 z M 50,28.945455 c -0.122538,-0.510795 -0.255873,-0.895644 -0.296298,-0.855217 -0.04043,0.04043 0.02368,0.494504 0.142453,1.009062 0.118774,0.51456 0.252107,0.899407 0.296296,0.855218 C 50.186642,29.910329 50.122538,29.456249 50,28.945455 z m 13.909091,0.297907 c 0.351913,-0.265353 0.341842,-0.283369 -0.312342,-0.558778 -0.867451,-0.365193 -0.869476,-0.364831 -0.869476,0.155091 0,1.04493 0.228074,1.122838 1.181818,0.403687 z M 29.988882,28.131084 c 1.211325,-0.165097 2.809845,-1.108729 3.932681,-2.321528 1.704957,-1.841556 2.481786,-3.862472 2.493657,-6.487227 0.0088,-1.947458 -0.281704,-3.215694 -1.0963,-4.785934 -0.815877,-1.572711 -1.748148,-2.618186 -3.011513,-3.377194 -0.891793,-0.535774 -2.967587,-1.2505359 -3.13771,-1.080413 -0.03518,0.03518 0.06027,0.539726 0.212121,1.121212 0.304497,1.166044 0.308539,1.139509 -0.187093,1.228169 -0.298313,0.05336 -0.390407,-0.120673 -0.616232,-1.164533 -0.297403,-1.3747262 -0.291922,-1.3718256 -1.822525,-0.964423 -2.134137,0.568046 -3.827278,2.007487 -4.983979,4.237182 -0.82799,1.596058 -1.109027,2.85203 -1.088284,4.863605 0.01731,1.678142 0.531478,3.855162 0.99869,4.228478 0.392944,0.313973 5.416528,0.63198 7.76716,0.491682 l 2.186809,-0.13052 0,0.458811 c 0,0.393634 -0.09685,0.47106 -0.681819,0.545056 -1.287228,0.162831 -6.318348,0.863704 -6.929455,0.965326 l -0.611273,0.101649 0.399814,0.425583 c 0.95609,1.017711 3.676342,2.000319 5.004551,1.80774 0.2,-0.029 0.726815,-0.102223 1.1707,-0.162721 l 0,0 z M 46.040453,25.030516 C 52.78126,23.851384 59.8056,19.003789 60.927753,14.756584 61.375193,13.063078 60.705347,11.707219 59,10.854545 57.983569,10.34633 57.753929,10.306158 55.636364,10.266132 c -1.851137,-0.03499 -2.626864,0.03754 -4.181819,0.391019 -5.224063,1.187544 -10.16452,4.178927 -12.637661,7.65194 -1.369962,1.923825 -1.670728,3.450544 -0.948731,4.815856 0.978563,1.850495 4.196989,2.600948 8.1723,1.905569 l 0,0 z m -6.587268,-8.875439 c 3.066631,-3.226665 7.721584,-5.660033 12.71914,-6.6489106 1.512882,-0.2993573 1.538413,-0.3133668 1.699106,-0.932318 0.08973,-0.3456166 0.133529,-1.2174248 0.09733,-1.9373513 C 53.895924,5.187678 53.598775,4.6156244 52.547304,3.9 51.727642,3.342143 49.569535,3.3272943 47.948809,3.8683603 43.91648,5.2145216 39.321071,9.3374591 37.092845,13.608179 l -0.582929,1.11727 0.381406,1.508256 c 0.209773,0.82954 0.385247,1.717678 0.389943,1.973639 0.0084,0.458754 0.01553,0.456318 0.498639,-0.17098 0.269556,-0.35 1.022532,-1.196579 1.673281,-1.881287 l 0,0 z"
         id="path4175"
         inkscape:connector-curvature="0" />
      <path
         style="fill:#000000;fill-opacity:1;stroke:#000000;stroke-width:0.18181819;stroke-opacity:1"
         d="m 41.636364,39.557587 c -2.701044,-0.336151 -5.783345,-1.229052 -7.909091,-2.29116 -3.76846,-1.882872 -5.840819,-4.166327 -6.44842,-7.105274 -0.143116,-0.692251 -0.323057,-1.090175 -0.521419,-1.153073 -0.166589,-0.05282 -0.88081,-0.371815 -1.587158,-0.708869 -4.876836,-2.327126 -6.827664,-9.000019 -4.131284,-14.131239 0.366914,-0.698239 1.066898,-1.70695 1.555521,-2.241581 0.488623,-0.534632 0.861567,-1.080639 0.828765,-1.21335 -0.0328,-0.132711 -0.550551,-1.0741497 -1.150551,-2.0920863 L 21.181818,6.7701611 19.772727,6.7668993 C 18.485936,6.7639195 18.363636,6.7320751 18.363636,6.4 c 0,-0.3378687 0.121212,-0.3636364 1.710557,-0.3636364 l 1.710557,0 1.133869,1.9545455 C 24.439421,10.612442 24.270031,10.455145 25.11054,10.026349 25.501763,9.8267616 26.291483,9.5548235 26.865473,9.4220416 27.872511,9.189082 27.907547,9.1611122 27.865056,8.6240618 27.778025,7.5240771 27.512003,7.1799278 26.193831,6.4620156 25.026971,5.826512 24.680346,5.4166235 25.021387,5.0755831 c 0.06176,-0.061763 0.835644,0.2509916 1.719737,0.6950096 1.72586,0.8667793 1.615618,0.7249435 2.090345,2.6894035 0.131412,0.5437971 0.280753,0.6293058 1.936412,1.1087423 1.40108,0.405717 3.107616,1.5899775 4.260739,2.9567635 l 0.949557,1.125503 0.494554,-0.852776 c 1.667864,-2.8759506 4.592678,-6.0076021 7.281476,-7.7964077 2.297373,-1.528398 4.259137,-2.2728802 6.269706,-2.3793315 1.830245,-0.096904 2.633265,0.1128914 3.565678,0.9315614 1.014598,0.8908286 1.31086,1.7414388 1.315507,3.7770015 l 0.004,1.7492344 1.296946,0.1277978 c 4.479389,0.4413876 6.562818,2.7612301 5.538005,6.1664221 -0.375953,1.249196 -1.26972,2.559336 -2.917853,4.277171 -0.942509,0.982369 -1.376054,1.555335 -1.219289,1.611391 0.556706,0.199066 3.113178,2.272518 3.729969,3.025229 0.366317,0.44704 0.93228,1.330053 1.257699,1.962251 0.535216,1.039778 0.70727,1.210327 1.80326,1.787495 0.666376,0.350923 1.26047,0.686921 1.32021,0.746661 0.05974,0.05974 -0.469738,0.548311 -1.17662,1.085711 -1.020843,0.776086 -1.449676,1.262173 -2.084561,2.362875 -0.892599,1.547502 -2.676742,3.324027 -4.342537,4.323996 -1.615011,0.969482 -4.203942,1.950206 -6.568865,2.48838 -1.90828,0.434258 -2.626318,0.502437 -5.727273,0.543811 -1.95,0.02602 -3.831818,0.01167 -4.181818,-0.03189 l -7e-6,0 z m 6,-0.940792 c 0.516769,-0.102228 0.639672,-0.21131 0.653969,-0.580431 0.0097,-0.25 0.202845,-1.143446 0.429249,-1.985433 0.357825,-1.330744 0.400729,-1.841806 0.328176,-3.909091 C 48.964436,29.767767 48.827022,29.142018 47.786855,26.4 l -0.2414,-0.636364 -1.181819,0.207648 c -0.65,0.114207 -1.897727,0.21648 -2.772727,0.227272 -0.875,0.0108 -1.589507,0.08099 -1.587793,0.155989 0.0016,0.075 0.172271,0.75 0.379017,1.5 0.520269,1.887357 0.666416,5.888195 0.292234,8 -0.375411,2.118748 -0.557122,2.542071 -1.037282,2.416508 -0.303156,-0.07928 -0.362085,-0.199308 -0.283029,-0.576498 0.123193,-0.587779 -0.01113,-0.79764 -0.754118,-1.178277 -1.157005,-0.592733 -1.287396,-0.246056 -0.313076,0.8324 0.357773,0.396013 0.623618,0.746902 0.590765,0.779755 -0.09092,0.09092 -1.702383,-0.233284 -3.293314,-0.662564 -1.169186,-0.31548 -1.401657,-0.437045 -1.299571,-0.679584 0.453711,-1.077936 0.819173,-2.62487 1.011973,-4.283496 0.259372,-2.231324 0.06432,-4.225514 -0.63249,-6.466425 -0.322576,-1.037397 -0.383018,-1.485846 -0.252638,-1.874451 l 0.17138,-0.510815 0.652515,0.762317 c 0.601316,0.702501 2.489023,1.804258 3.091978,1.804623 0.491276,3.64e-4 1.193196,2.470731 1.485029,5.22662 l 0.168553,1.591706 -0.07557,-1.818182 c -0.07394,-1.778907 -0.616555,-4.269611 -1.041784,-4.78198 -0.111643,-0.134522 -0.701854,-0.470782 -1.31158,-0.747246 -1.2146,-0.550725 -2.380543,-1.475678 -2.555662,-2.027427 -0.169,-0.532473 -0.439138,-0.425216 -0.739481,0.293611 -0.25299,0.605489 -0.236209,0.763704 0.267301,2.520142 0.677208,2.362367 0.854504,4.297843 0.567702,6.197445 -0.239203,1.584349 -1.023775,4.272728 -1.246945,4.272728 -0.07654,0 -0.292572,-0.11218 -0.480079,-0.24929 -0.331466,-0.242372 -0.328648,-0.289023 0.101613,-1.681818 0.382625,-1.238594 0.442535,-1.78944 0.442535,-4.068892 0,-2.006393 -0.08055,-2.928511 -0.337108,-3.858966 l -0.337108,-1.222604 -1.17792,0.999302 C 32.288294,28.363651 30.544199,29.1199 28.8404,29.125115 l -0.705056,0.0022 L 28.258018,29.9 c 0.467802,2.946655 3.476871,5.710007 7.964177,7.313833 0.943481,0.337212 2.363547,0.750371 3.155703,0.918127 2.28058,0.482967 6.897682,0.754025 8.258466,0.484835 l 0,0 z M 51,38.124362 l 0.909091,-0.240731 -1.136364,0.09985 c -1.100992,0.09674 -1.136762,0.08639 -1.149143,-0.332724 -0.01193,-0.404042 -0.02309,-0.408589 -0.169039,-0.06894 -0.380805,0.886184 -0.11055,0.98106 1.545455,0.542544 l 0,0 z m 3.10578,-0.815271 c 0.04182,0 0.06958,-0.184091 0.06168,-0.409091 -0.0093,-0.264405 -0.04883,-0.312635 -0.111824,-0.136364 -0.05361,0.15 -0.23124,0.386008 -0.394736,0.52446 -0.271159,0.229624 -0.268015,0.2416 0.03578,0.136364 0.183178,-0.06345 0.367269,-0.115369 0.409091,-0.115369 z M 41.975885,34.127273 c -0.0071,-0.539869 -0.0086,-0.540684 -0.148505,-0.07949 -0.07775,0.256284 -0.188031,1.033557 -0.245069,1.727273 l -0.103702,1.261306 0.252207,-1.181819 c 0.138717,-0.65 0.248997,-1.427272 0.245069,-1.727272 z m 15.16771,1.811732 c 1.80805,-1.058392 3.789078,-2.923103 4.393045,-4.135107 0.39308,-0.788807 0.451511,-1.10578 0.374747,-2.032847 -0.05002,-0.604078 -0.12744,-1.616184 -0.172042,-2.249126 -0.07032,-0.997898 -0.178027,-1.279187 -0.810654,-2.117098 -0.809391,-1.072029 -1.760713,-1.896974 -3.353411,-2.907932 -1.152509,-0.731551 -1.47624,-0.719671 -2.454869,0.09008 l -0.425044,0.351694 0.375375,1.139756 c 1.331105,4.041653 1.425838,8.383644 0.26982,12.36703 -0.146484,0.50475 0.280465,0.384825 1.803033,-0.50645 l 0,0 z m -2.851928,-0.03522 c -0.06042,-0.06042 -0.103389,0.04697 -0.09549,0.238637 0.0087,0.211809 0.05181,0.254891 0.109847,0.109849 0.05252,-0.131251 0.04606,-0.288069 -0.01434,-0.348486 l -8e-6,0 z m 0.192384,-0.821969 c -0.05044,-0.125 -0.09171,-0.02273 -0.09171,0.227273 0,0.25 0.04127,0.352273 0.09171,0.227273 0.05044,-0.125 0.05044,-0.329546 0,-0.454546 z m 0.452865,-4.590909 c -0.0015,-1.5 -0.06972,-2.996336 -0.151625,-3.325191 -0.09058,-0.363678 -0.148927,1.014129 -0.148927,3.516958 0,2.707091 0.05187,3.844709 0.151627,3.325191 0.08339,-0.434327 0.150411,-2.016958 0.148925,-3.516958 l 0,0 z M 63.62216,29.3713 c 0.410902,-0.287806 0.415267,-0.312449 0.09661,-0.545455 -0.707899,-0.517627 -1.179519,-0.218278 -0.88114,0.559282 0.139025,0.362295 0.25034,0.360331 0.784525,-0.01382 l 0,-9e-6 z M 29.988882,28.131084 c 1.211325,-0.165097 2.809845,-1.108729 3.932681,-2.321528 1.704957,-1.841556 2.481786,-3.862472 2.493657,-6.487227 0.0088,-1.947458 -0.281704,-3.215694 -1.0963,-4.785934 -0.815877,-1.572711 -1.748148,-2.618186 -3.011513,-3.377194 -0.891793,-0.535774 -2.967587,-1.2505359 -3.13771,-1.080413 -0.03518,0.03518 0.06027,0.539726 0.212121,1.121212 0.304497,1.166044 0.308539,1.139509 -0.187093,1.228169 -0.298313,0.05336 -0.390407,-0.120673 -0.616232,-1.164533 -0.297403,-1.3747262 -0.291922,-1.3718256 -1.822525,-0.964423 -2.134137,0.568046 -3.827278,2.007487 -4.983979,4.237182 -0.82799,1.596058 -1.109027,2.85203 -1.088284,4.863605 0.01731,1.678142 0.531478,3.855162 0.99869,4.228478 0.392944,0.313973 5.416528,0.63198 7.76716,0.491682 l 2.186809,-0.13052 0,0.458811 c 0,0.393634 -0.09685,0.47106 -0.681819,0.545056 -1.287228,0.162831 -6.318348,0.863704 -6.929455,0.965326 l -0.611273,0.101649 0.399814,0.425583 c 0.95609,1.017711 3.676342,2.000319 5.004551,1.80774 0.2,-0.029 0.726815,-0.102223 1.1707,-0.162721 l 0,0 z M 54.171125,24.85824 c -0.237252,-0.799185 -0.494665,-1.350605 -0.609178,-1.304956 -1.551542,0.618483 -2.636927,1.105069 -2.583703,1.158292 0.0365,0.0365 0.617141,-0.140949 1.290316,-0.394331 0.673175,-0.253381 1.287887,-0.421181 1.366029,-0.372887 0.07814,0.04829 0.286606,0.621746 0.463253,1.274335 0.176649,0.652591 0.357847,1.14986 0.402665,1.105043 0.04482,-0.04482 -0.103405,-0.704291 -0.329382,-1.465496 l 0,0 z m -4.71658,0.527733 0.454546,-0.273869 -0.454546,0.118929 c -0.25,0.06541 -0.532272,0.191551 -0.627272,0.280311 -0.27772,0.25948 0.120689,0.179851 0.627272,-0.125371 z M 47.090909,24.75434 c 6.583807,-1.577884 12.573638,-5.904524 13.743002,-9.926995 0.362474,-1.246868 0.190764,-2.116542 -0.588116,-2.978669 -0.86135,-0.953411 -2.06525,-1.420499 -3.999624,-1.551771 -7.482906,-0.5078105 -17.60486,5.351951 -18.672024,10.809533 -0.256734,1.312966 0.456211,2.659362 1.761222,3.326058 1.18448,0.60512 1.518326,0.662597 3.937358,0.677875 1.699328,0.01073 2.662638,-0.07909 3.818182,-0.356031 z m 3.454546,0.191115 c 0.15,-0.09694 0.190909,-0.17625 0.09091,-0.17625 -0.1,0 -0.304546,0.07931 -0.454546,0.17625 -0.15,0.09694 -0.190909,0.176249 -0.09091,0.176249 0.1,0 0.304546,-0.07931 0.454546,-0.176249 z M 42.59326,13.478509 c 2.920091,-1.953217 5.539089,-3.076794 9.065547,-3.8892139 L 53.77216,9.1024244 53.88608,8.2712902 C 54.173022,6.1778193 53.797607,4.7985093 52.734916,4.0418068 52.004605,3.5217792 50.250598,3.3534268 48.884744,3.6722611 44.726855,4.642846 39.772655,8.8106395 37.205758,13.497378 l -0.650816,1.188288 0.403314,1.837303 0.403317,1.837303 1.788943,-1.887778 c 1.164193,-1.22851 2.3665,-2.274097 3.442744,-2.993985 l 0,0 z"
         id="path4177"
         inkscape:connector-curvature="0" />
      <path
         style="fill:#000000;fill-opacity:1;stroke:#000000;stroke-width:0.18181819;stroke-opacity:1"
         d="m 41.272727,39.562982 c -5.574852,-1.017413 -8.960901,-2.502749 -11.561628,-5.071664 -1.390913,-1.3739 -2.129673,-2.671611 -2.461497,-4.323887 l -0.191637,-0.954233 -1.621999,-0.772342 c -3.581932,-1.7056 -5.607612,-5.056063 -5.615097,-9.287339 -0.0047,-2.662748 0.826842,-4.890724 2.671059,-7.156564 L 23.485913,10.775725 22.328624,8.8151351 21.171335,6.8545455 19.767486,6.8014429 c -1.263511,-0.047794 -1.40385,-0.089348 -1.40385,-0.4156749 0,-0.3408376 0.105538,-0.3594529 1.76055,-0.3105338 l 1.760549,0.052039 1.157091,1.9933975 c 0.636399,1.0963685 1.181859,2.0181663 1.212133,2.0484403 0.03027,0.03027 0.844608,-0.2057838 1.809633,-0.5245716 1.504195,-0.496898 1.75459,-0.6361609 1.75459,-0.975854 0,-0.9739869 -0.355051,-1.4434076 -1.638371,-2.1661247 -1.188027,-0.6690522 -1.571772,-1.1677664 -1.115529,-1.44974 0.08535,-0.052752 0.842173,0.2550454 1.681818,0.6839949 l 1.526627,0.779908 0.364183,1.1149124 c 0.200301,0.6132018 0.445755,1.1904496 0.545455,1.2827729 0.0997,0.092323 0.728671,0.3466718 1.397716,0.5652191 1.63306,0.533449 3.122697,1.528405 4.348336,2.904334 l 1.013532,1.137813 1.216911,-1.827943 c 2.321502,-3.4871666 5.51374,-6.3841259 8.721171,-7.9144715 2.019029,-0.9633295 2.948644,-1.1975418 4.75318,-1.1975418 1.532329,0 2.370954,0.3152209 3.22078,1.2106213 0.805514,0.848712 1.0551,1.691357 1.0551,3.5622061 l 0,1.6935979 1.692214,0.2011967 c 2.085317,0.2479349 3.356375,0.7758223 4.27956,1.7773603 1.968759,2.135852 1.369677,5.026513 -1.713105,8.26599 -0.842267,0.885079 -1.531396,1.689241 -1.531396,1.787025 0,0.09779 0.470454,0.488735 1.045454,0.868777 1.536597,1.015603 3.133106,2.728682 3.895266,4.179682 0.619811,1.179996 0.760792,1.32183 1.954545,1.966347 0.707604,0.382043 1.286553,0.718083 1.286553,0.746758 0,0.02867 -0.600186,0.544736 -1.333747,1.146805 -0.907411,0.744757 -1.524837,1.433266 -1.931553,2.153928 -1.502867,2.662934 -4.424687,4.841403 -8.256597,6.156009 -2.979927,1.022316 -4.269714,1.215594 -8.569012,1.284089 -2.2,0.03505 -4.204546,0.0264 -4.454546,-0.01923 z m 7.274288,-2.858371 c 0.373418,-1.525096 0.451209,-2.281213 0.44287,-4.304611 -0.0097,-2.356258 -0.03815,-2.537218 -0.710269,-4.519173 L 47.579464,25.8162 46.926095,25.933016 c -0.359351,0.06425 -1.43064,0.159691 -2.38064,0.212095 -0.95,0.0524 -1.900397,0.129998 -2.111991,0.172431 l -0.38472,0.07715 0.373136,1.411743 c 0.314164,1.188626 0.372807,1.957717 0.371062,4.866289 -0.0018,3.013142 -0.05063,3.601231 -0.382062,4.602542 -0.271,0.818722 -0.319233,1.169866 -0.168162,1.224244 0.30328,0.109162 3.393722,0.183862 4.724184,0.114189 l 1.127127,-0.05903 0.452986,-1.850065 z m -7.058251,1.539553 c -0.131802,-0.08413 -0.213146,-0.384573 -0.181819,-0.67154 0.04879,-0.446942 -0.05248,-0.580209 -0.726787,-0.956424 -0.430913,-0.240418 -0.831107,-0.389495 -0.889322,-0.33128 -0.05821,0.05821 0.197186,0.475653 0.567557,0.927642 0.370369,0.451987 0.63328,0.886707 0.584247,0.966045 -0.04903,0.07934 0.129949,0.160798 0.39774,0.181024 0.32062,0.02422 0.405442,-0.01522 0.248384,-0.115467 l 0,0 z m 8.874872,-0.02598 c 0.430668,-0.137924 0.423504,-0.146524 -0.136363,-0.163695 -0.325,-0.01 -0.652273,-0.01813 -0.727273,-0.01813 -0.075,0 -0.163636,0.08182 -0.196969,0.181818 -0.07002,0.210055 0.404707,0.210055 1.060605,0 l 0,4e-6 z m -11.056818,-0.30602 c -0.131249,-0.05252 -0.288067,-0.04606 -0.348485,0.01434 -0.06042,0.06042 0.04697,0.103389 0.238636,0.09549 0.211809,-0.0087 0.254891,-0.05181 0.109849,-0.109847 l 0,7e-6 z m 14.875,-0.79562 C 54.181818,37.01064 54.1,36.97456 54,37.036364 c -0.1,0.0618 -0.181818,0.148451 -0.181818,0.192549 0,0.0441 0.08182,0.08018 0.181818,0.08018 0.1,0 0.181818,-0.08665 0.181818,-0.192549 z M 36.367656,36.478727 c 0.298482,-0.904409 0.114711,-0.967834 -0.233773,-0.08068 -0.157546,0.401075 -0.217557,0.729228 -0.133357,0.729228 0.0842,0 0.249409,-0.291846 0.36713,-0.648546 z m -1.200071,0.04065 c -0.05155,-0.134342 0.07965,-0.850251 0.29156,-1.590909 0.552029,-1.929429 0.667581,-5.054596 0.258898,-7.002038 -0.172614,-0.82254 -0.376738,-1.597289 -0.453607,-1.721666 -0.09943,-0.160883 -0.420086,0.02074 -1.11119,0.629391 -1.415485,1.246609 -3.292831,2.127887 -4.788726,2.247964 l -1.21337,0.0974 0.119972,0.655695 c 0.06598,0.360632 0.331075,1.12963 0.58909,1.708885 0.627817,1.409476 2.764263,3.429311 4.714292,4.456978 1.565675,0.825113 1.73152,0.879069 1.593081,0.518302 l 0,0 z m 23.289497,-1.483302 c 1.339902,-0.949702 2.476198,-2.159765 3.009223,-3.204583 0.368366,-0.722057 0.393362,-0.968631 0.305182,-3.010455 -0.110858,-2.566931 -0.212689,-2.805887 -1.897638,-4.453004 -1.287604,-1.258692 -2.893114,-2.331672 -3.488905,-2.331672 -0.24284,0 -0.708755,0.203823 -1.035366,0.45294 l -0.593834,0.452941 0.425421,1.410695 c 0.774615,2.568609 0.904086,3.499545 0.891571,6.410696 -0.0083,1.937922 -0.106769,3.233629 -0.315152,4.148251 -0.445157,1.95384 -0.454551,1.933958 0.651507,1.378542 0.525,-0.263634 1.446596,-0.828091 2.047991,-1.254351 l 0,0 z m -21.61996,-0.586836 c -0.06042,-0.06042 -0.103389,0.04697 -0.09549,0.238636 0.0087,0.211809 0.05181,0.254891 0.109848,0.109849 0.05252,-0.131251 0.04606,-0.288069 -0.01435,-0.348485 l -7e-6,0 z m 18.009413,-2.098157 c -0.04981,-0.123096 -0.08752,0.02164 -0.08382,0.321642 0.0037,0.3 0.04445,0.400717 0.09055,0.223813 0.0461,-0.176904 0.04307,-0.422358 -0.0067,-0.545455 l 1e-5,0 z m 0.01438,-2.814721 c -0.03745,-0.475 -0.0681,-0.08636 -0.0681,0.863636 0,0.95 0.03064,1.338636 0.0681,0.863636 0.03745,-0.475 0.03745,-1.252272 0,-1.727272 z m 8.770137,-0.216924 0.449232,-0.3452 -0.49962,-0.227644 c -0.595165,-0.271174 -0.88808,-0.06396 -0.735323,0.520177 0.128349,0.4908 0.208542,0.496176 0.785711,0.05267 l 0,0 z M 37.200758,28.812878 c -0.06042,-0.06042 -0.103389,0.04697 -0.09549,0.238637 0.0087,0.211809 0.05181,0.25489 0.109847,0.109849 0.05252,-0.131251 0.04606,-0.288069 -0.01435,-0.348486 l -7e-6,0 z m 4.367771,-0.185605 c -0.05079,-0.175 -0.184405,-0.674168 -0.296929,-1.109262 -0.112525,-0.435095 -0.244965,-0.750707 -0.294311,-0.701362 -0.104693,0.104693 0.459447,2.128806 0.59332,2.128806 0.04964,0 0.04871,-0.143182 -0.0021,-0.318182 l -7e-6,0 z M 29.988882,28.131084 c 1.211325,-0.165097 2.809845,-1.108729 3.932681,-2.321528 1.704957,-1.841556 2.481786,-3.862472 2.493657,-6.487227 0.0088,-1.947458 -0.281704,-3.215694 -1.0963,-4.785934 -0.815877,-1.572711 -1.748148,-2.618186 -3.011513,-3.377194 -0.891793,-0.535774 -2.967587,-1.2505359 -3.13771,-1.080413 -0.03518,0.03518 0.06027,0.539726 0.212121,1.121212 0.304497,1.166044 0.308539,1.139509 -0.187093,1.228169 -0.298313,0.05336 -0.390407,-0.120673 -0.616232,-1.164533 -0.297403,-1.3747262 -0.291922,-1.3718256 -1.822525,-0.964423 -2.134137,0.568046 -3.827278,2.007487 -4.983979,4.237182 -0.82799,1.596058 -1.109027,2.85203 -1.088284,4.863605 0.01731,1.678142 0.531478,3.855162 0.99869,4.228478 0.392944,0.313973 5.416528,0.63198 7.76716,0.491682 l 2.186809,-0.13052 0,0.458811 c 0,0.393634 -0.09685,0.47106 -0.681819,0.545056 -1.287228,0.162831 -6.318348,0.863704 -6.929455,0.965326 l -0.611273,0.101649 0.399814,0.425583 c 0.95609,1.017711 3.676342,2.000319 5.004551,1.80774 0.2,-0.029 0.726815,-0.102223 1.1707,-0.162721 l 0,0 z m 6.84824,-1.318206 c -0.06042,-0.06042 -0.103389,0.04697 -0.09549,0.238637 0.0087,0.211809 0.05181,0.25489 0.109848,0.109849 0.05252,-0.131251 0.04606,-0.288069 -0.01435,-0.348486 l -7e-6,0 z m -0.213746,-0.854436 c -0.06688,-0.266457 -0.156658,-0.449402 -0.199514,-0.406546 -0.04286,0.04286 -0.02321,0.295933 0.04367,0.562389 0.06688,0.266457 0.156658,0.449402 0.199514,0.406546 0.04286,-0.04286 0.02321,-0.295933 -0.04367,-0.562389 l 0,0 z m 3.361473,0.0094 c -0.185096,-0.167512 -1.621213,-0.838669 -1.621213,-0.757661 0,0.111541 1.301,0.807129 1.530304,0.818183 0.09166,0.0044 0.132575,-0.02282 0.09091,-0.06052 l 0,1e-6 z M 36.291667,24.81288 c -0.06042,-0.06042 -0.103389,0.04697 -0.09549,0.238636 0.0087,0.211809 0.05181,0.254891 0.109847,0.109849 0.05252,-0.131249 0.04606,-0.288067 -0.01434,-0.348485 l -8e-6,0 z m 1.249344,-0.458333 c -0.375716,-0.425 -0.753418,-0.850454 -0.839338,-0.945454 -0.08592,-0.095 -0.156218,-0.113628 -0.156218,-0.04139 0,0.149927 1.454309,1.759575 1.589767,1.759575 0.0489,0 -0.218495,-0.347728 -0.594211,-0.772728 z m 10.004444,0.243842 c 4.885869,-1.287942 9.530881,-4.107874 11.860787,-7.20054 1.899618,-2.521514 2.028983,-4.707456 0.354191,-5.984883 -1.068757,-0.81518 -2.020889,-1.040958 -4.396797,-1.042607 -2.627041,-0.0018 -4.673589,0.404953 -7.393427,1.469534 -3.281054,1.284247 -5.84624,2.966245 -7.990791,5.239584 -2.079258,2.204123 -2.818443,4.354667 -2.051971,5.969887 0.346571,0.730345 1.682411,1.664227 2.598689,1.816736 0.360626,0.06002 0.7375,0.142202 0.8375,0.18262 0.533677,0.215696 4.847286,-0.09854 6.181819,-0.450331 l 0,0 z M 36.291667,24.085605 c -0.06042,-0.06042 -0.103389,0.04697 -0.09549,0.238637 0.0087,0.211809 0.05181,0.254891 0.109847,0.109849 0.05252,-0.131249 0.04606,-0.288067 -0.01434,-0.348486 l -8e-6,0 z m 17.253788,-0.23106 c 0.363636,-0.15626 0.363636,-0.15626 0,-0.166254 -0.2,-0.0055 -0.486364,0.06932 -0.636364,0.166254 -0.242424,0.156668 -0.242424,0.17514 0,0.166255 0.15,-0.0055 0.436364,-0.08031 0.636364,-0.166255 z m -14.71632,-7.090909 c 3.270849,-3.594019 7.09543,-5.752531 12.714854,-7.1759904 L 53.725205,9.0351205 53.87288,7.9777053 c 0.702271,-5.028516 -3.992613,-5.9345552 -9.914195,-1.9132849 -2.4323,1.6517429 -5.227772,4.7474936 -6.727494,7.4501316 l -0.642684,1.158175 0.387566,1.772254 c 0.21316,0.97474 0.438071,1.752013 0.499802,1.727273 0.06173,-0.02474 0.670698,-0.658618 1.35326,-1.408618 z"
         id="path4179"
         inkscape:connector-curvature="0" />
    </g>
    <path
       sodipodi:type="arc"
       style="fill:#ffffff;stroke:#000000;stroke-opacity:1;fill-opacity:1"
       id="path3813"
       sodipodi:cx="28.545454"
       sodipodi:cy="19.181818"
       sodipodi:rx="8.363636"
       sodipodi:ry="9.545455"
       d="m 36.90909,19.181818 a 8.363636,9.545455 0 1 1 -16.727272,0 8.363636,9.545455 0 1 1 16.727272,0 z" />
    <path
       sodipodi:type="arc"
       style="fill:#000000;fill-opacity:1;stroke:#000000;stroke-opacity:1"
       id="path3815"
       sodipodi:cx="24.818182"
       sodipodi:cy="19"
       sodipodi:rx="1.7272727"
       sodipodi:ry="2.8181818"
       d="m 26.545455,19 a 1.7272727,2.8181818 0 1 1 -3.454546,0 1.7272727,2.8181818 0 1 1 3.454546,0 z"
       transform="matrix(0.86357898,0,0,1,2.4228126,-1.6363637)" />
    <path
       sodipodi:type="arc"
       style="fill:#000000;fill-opacity:1;stroke:#000000;stroke-opacity:1"
       id="path3817"
       sodipodi:cx="30"
       sodipodi:cy="19.90909"
       sodipodi:rx="2"
       sodipodi:ry="3"
       d="m 32,19.90909 a 2,3 0 1 1 -4,0 2,3 0 1 1 4,0 z"
       transform="translate(-0.36363636,-1.4545455)" />
    <path
       sodipodi:type="arc"
       style="fill:#ffffff;fill-opacity:1;stroke:#000000;stroke-opacity:1"
       id="path3819"
       sodipodi:cx="25.09091"
       sodipodi:cy="18.90909"
       sodipodi:rx="1.4545455"
       sodipodi:ry="1.8181819"
       d="m 26.545455,18.90909 a 1.4545455,1.8181819 0 1 1 -2.909091,0 1.4545455,1.8181819 0 1 1 2.909091,0 z"
       transform="matrix(0.95175284,0,0,1,6.4131149,-1.2727273)" />
    <path
       sodipodi:type="arc"
       style="fill:#ffffff;fill-opacity:1;stroke:#000000;stroke-opacity:1"
       id="path3821"
       sodipodi:cx="31.09091"
       sodipodi:cy="19.636364"
       sodipodi:rx="1.4545455"
       sodipodi:ry="2"
       d="m 32.545455,19.636364 a 1.4545455,2 0 1 1 -2.909091,0 1.4545455,2 0 1 1 2.909091,0 z"
       transform="matrix(0.84240194,0,0,1,-1.8748211,-2.7272727)" />
    <path
       sodipodi:type="star"
       style="fill:#000000;fill-opacity:1;stroke:#000000;stroke-opacity:1"
       id="path3861"
       sodipodi:sides="3"
       sodipodi:cx="22.545456"
       sodipodi:cy="25.818182"
       sodipodi:r1="3.1080053"
       sodipodi:r2="1.6363636"
       sodipodi:arg1="2.0073926"
       sodipodi:arg2="3.0545902"
       inkscape:flatsided="true"
       inkscape:rounded="0.001"
       inkscape:randomized="0"
       d="m 21.231213,28.634645 c -0.0049,-0.0023 -0.472174,-5.359776 -0.467764,-5.362862 0.0044,-0.0031 4.877789,2.270973 4.878257,2.276336 4.67e-4,0.0054 -4.405615,3.088802 -4.410493,3.086526 z"
       inkscape:transform-center-x="-1.393703"
       transform="matrix(1.7072562,0,0,0.32277756,-13.296811,16.575562)" />
    <path
       style="fill:none;stroke:#000000;stroke-width:1.10134959px;stroke-linecap:butt;stroke-linejoin:miter;stroke-opacity:1"
       d="m 27.868857,24.676599 3.89865,-0.262288"
       id="path3863"
       inkscape:path-effect="#path-effect3865"
       inkscape:original-d="m 27.868857,24.676599 3.89865,-0.262288"
       inkscape:connector-curvature="0"
       sodipodi:nodetypes="cc" />
    <path
       style="fill:none;stroke:#000000;stroke-width:1px;stroke-linecap:butt;stroke-linejoin:miter;stroke-opacity:1"
       d="M 29.272727,12.545455 28,6.9090909 24.909091,5.2727273"
       id="path3885"
       inkscape:path-effect="#path-effect3887"
       inkscape:original-d="M 29.272727,12.545455 28,6.9090909 24.909091,5.2727273"
       inkscape:connector-curvature="0" />
    <path
       style="fill:none;stroke:#000000;stroke-width:1px;stroke-linecap:butt;stroke-linejoin:miter;stroke-opacity:1"
       d="m 24,10.727273 -2.545455,-4.3636366 -3.090909,0"
       id="path3889"
       inkscape:path-effect="#path-effect3891"
       inkscape:original-d="m 24,10.727273 -2.545455,-4.3636366 -3.090909,0"
       inkscape:connector-curvature="0" />
    <path
       style="fill:none;stroke:#000000;stroke-width:1px;stroke-linecap:butt;stroke-linejoin:miter;stroke-opacity:1"
       d="m 41.272727,25.818182 c 0.513902,1.286154 0.880685,2.631025 1.090909,4 0.438016,2.852348 0.186458,5.808148 -0.727272,8.545454"
       id="path3940"
       inkscape:path-effect="#path-effect3942"
       inkscape:original-d="m 41.272727,25.818182 c 1.090909,4 -18.363636,20.545454 1.090909,4 19.454546,-16.545455 -0.727272,8.545454 -0.727272,8.545454"
       inkscape:connector-curvature="0" />
  </g>
</svg>
